<?xml version="1.0" encoding="UTF-8"?>
<svg version="1.1" xmlns="http://www.w3.org/2000/svg" width="500" height="500">
<path d="M0 0 C3.81762806 1.36832547 6.84109053 3.12996136 10.125 5.5 C10.97320312 6.1084375 11.82140625 6.716875 12.6953125 7.34375 C13.83613281 8.16359375 13.83613281 8.16359375 15 9 C15.99 9.66 16.98 10.32 18 11 C18 11.66 18 12.32 18 13 C19.01513672 13.33837891 19.01513672 13.33837891 20.05078125 13.68359375 C23.808769 15.3610002 26.88854141 17.62533832 30.1875 20.0625 C34.43524864 23.28371363 34.43524864 23.28371363 39 26 C39 26.66 39 27.32 39 28 C40.32 28.33 41.64 28.66 43 29 C43 29.66 43 30.32 43 31 C44.98 31.66 46.96 32.32 49 33 C49 33.66 49 34.32 49 35 C49.8353125 35.1546875 49.8353125 35.1546875 50.6875 35.3125 C53.4769101 36.14178408 55.6139064 37.34299056 58 39 C58 39.66 58 40.32 58 41 C58.69609375 41.08378906 59.3921875 41.16757812 60.109375 41.25390625 C63.6456805 42.16665537 66.24747256 43.94950416 69.25 45.9375 C75.91910356 50.14723879 82.84691364 53.14749541 90.1875 56 C91.26 56.41677002 92.3325 56.83354004 93.4375 57.26293945 C94.50871094 57.67890381 95.57992187 58.09486816 96.68359375 58.5234375 C113.8553207 65.19596941 129.57958767 72.7492265 144.171875 84.140625 C150.7276635 88.45078429 157.65590204 90.61673055 165.25 92.3125 C180.24256371 95.86813822 194.93582614 100.68131319 209 107 C208.59007812 106.09378906 208.18015625 105.18757813 207.7578125 104.25390625 C204.79413236 97.59249055 202.24602567 91.22694889 201 84 C201.99 84 202.98 84 204 84 C204.66 85.65 205.32 87.3 206 89 C206.66 89 207.32 89 208 89 C208.33 90.32 208.66 91.64 209 93 C209.66 93 210.32 93 211 93 C212.5078125 94.4609375 212.5078125 94.4609375 214.125 96.375 C214.66382813 97.00148438 215.20265625 97.62796875 215.7578125 98.2734375 C217 100 217 100 217 102 C217.66 102 218.32 102 219 102 C220.49629179 103.6785513 221.92292661 105.41958898 223.3125 107.1875 C226.92829342 111.77323461 230.50228142 116.2448464 235.3125 119.625 C235.869375 120.07875 236.42625 120.5325 237 121 C237 121.99 237 122.98 237 124 C237.54140625 124.2165625 238.0828125 124.433125 238.640625 124.65625 C241.81645344 126.46499997 244.20728081 128.91723799 246.75 131.5 C247.25660156 131.99886719 247.76320313 132.49773437 248.28515625 133.01171875 C252 136.74658861 252 136.74658861 252 139 C252.86625 139.3403125 252.86625 139.3403125 253.75 139.6875 C256.5663661 141.33038023 258.08077114 143.39533227 260 146 C256.99382731 149.00617269 254.17618402 148.59585316 250 149 C250.66 150.32 251.32 151.64 252 153 C247.05 153.33 242.1 153.66 237 154 C238.57587891 154.27263672 238.57587891 154.27263672 240.18359375 154.55078125 C247.68333528 155.88198537 254.8423862 157.31589483 262 160 C262 160.66 262 161.32 262 162 C263.1446875 162.1546875 263.1446875 162.1546875 264.3125 162.3125 C267.32885503 163.08412571 268.23182482 163.47403546 270 166 C270.66666667 168.33333333 271.33333333 170.66666667 272 173 C273.48938217 174.69863407 273.48938217 174.69863407 275 176 C275.05428973 173.77110504 275.09292338 171.54182529 275.125 169.3125 C275.15980469 167.45044922 275.15980469 167.45044922 275.1953125 165.55078125 C275.00765696 162.13920347 274.33521914 160.08572296 273 157 C273 155.68 273 154.36 273 153 C287.63468243 158.65552746 297.01035373 164.47526551 305.16796875 177.92578125 C307.36691069 183.40765058 307.00417754 190.24444194 305.0078125 195.72265625 C300.62215476 203.54002923 293.7093952 212.14344257 285 215 C285.45833538 212.86110156 285.93431318 211.11621514 287.015625 209.203125 C288.87624189 205.0388872 288.58181622 200.45833592 288 196 C286.22876774 193.29898394 286.22876774 193.29898394 284 192 C283.34 192.33 282.68 192.66 282 193 C272.2361495 193.70318168 264.00397298 193.27307192 255 189 C254.87882812 189.75925781 254.75765625 190.51851562 254.6328125 191.30078125 C254.46523438 192.29464844 254.29765625 193.28851563 254.125 194.3125 C253.96257812 195.29863281 253.80015625 196.28476563 253.6328125 197.30078125 C253 200 253 200 251 203 C250.5875 202.05125 250.175 201.1025 249.75 200.125 C249.47414063 199.49078125 249.19828125 198.8565625 248.9140625 198.203125 C248.26763527 196.64506962 247.66200554 195.06979303 247.0859375 193.484375 C246.76882813 192.62328125 246.45171875 191.7621875 246.125 190.875 C245.83882812 190.06804687 245.55265625 189.26109375 245.2578125 188.4296875 C242.1279782 182.38385851 237.39682301 179.9168784 231.375 177.5 C229.93445263 176.900804 228.49434875 176.30054068 227.0546875 175.69921875 C226.35698242 175.41095215 225.65927734 175.12268555 224.94042969 174.82568359 C222.41214244 173.74985729 219.96309649 172.52907501 217.5 171.3125 C210.63632084 168.15583061 203.32908193 166.68340999 196 165 C193.33046423 164.34425397 190.66526603 163.67298709 188 163 C189.547813 166.09562599 192.19478212 166.54389714 195.3125 167.9375 C205.06730419 172.58246585 212.73080435 179.24083507 218.6875 188.3125 C222.95703056 194.72189075 227.26365902 198.23108268 234.91015625 199.8046875 C238.59398341 200.35674077 242.28570973 200.71616754 246 201 C245.67 201.99 245.34 202.98 245 204 C241.4375 205.6875 241.4375 205.6875 238 207 C250.07423697 216.62544332 250.07423697 216.62544332 264.734375 219.34375 C267.64662526 218.90189134 269.60542074 217.66894918 272 216 C272.99 216.33 273.98 216.66 275 217 C274.34 218.65 273.68 220.3 273 222 C272.34 222 271.68 222 271 222 C271 222.66 271 223.32 271 224 C270.34 224.66 269.68 225.32 269 226 C275.24188312 228.08062771 280.90895562 227.21492523 287 225 C289.875 224.875 289.875 224.875 292 225 C290.36397114 228.63561968 288.50462349 231.7466089 286.0625 234.875 C282.01748298 240.12448858 279.32181842 245.80848421 277 252 C276.34 252 275.68 252 275 252 C274.690625 252.804375 274.690625 252.804375 274.375 253.625 C272.46157738 256.9300027 270.15192565 259.81116274 267 262 C263.796875 262.67578125 263.796875 262.67578125 261 263 C261.48210937 262.28714844 261.96421875 261.57429688 262.4609375 260.83984375 C265.89341459 255.63508768 268.77133288 251.14333558 270 245 C269.35675781 245.27714844 268.71351563 245.55429688 268.05078125 245.83984375 C254.29237582 251.35498202 239.15708731 251.16384921 225 247 C225 246.34 225 245.68 225 245 C234.9 244.01 234.9 244.01 245 243 C242.04915009 240.63932007 239.28305013 238.46567656 236.1875 236.375 C234.6096875 235.199375 234.6096875 235.199375 233 234 C233 233.34 233 232.68 233 232 C232.34 232 231.68 232 231 232 C231 231.34 231 230.68 231 230 C230.195625 229.731875 229.39125 229.46375 228.5625 229.1875 C226.74209949 228.58069983 224.91959797 227.96500548 223.16015625 227.19921875 C215.63286932 224.15073978 207.97325511 224.73585535 200 225 C204.08804062 220.13062738 211.4282364 218.35337083 217.56640625 217.74609375 C219.37957765 217.74933735 221.19216643 217.86093588 223 218 C222.38742902 212.72295693 222.38742902 212.72295693 219.4140625 208.61328125 C210.47525763 203.5404152 198.63346792 203.41513024 188.7578125 205.94140625 C181.87929247 208.01472204 175.90844746 210.94518312 170 215 C169.34 215 168.68 215 168 215 C168 215.66 168 216.32 168 217 C165.525 217.99 165.525 217.99 163 219 C163.42237779 210.76363304 169.17438782 204.36569543 175 199 C175.7425 198.2575 176.485 197.515 177.25 196.75 C178.16666667 195.83333333 179.08333333 194.91666667 180 194 C152.6395981 190.79459727 127.21173838 190.64026951 104.34765625 208.015625 C102.37714796 209.6812127 100.86256051 211.21071774 99.3125 213.25 C98.1678125 214.61125 98.1678125 214.61125 97 216 C96.34 216 95.68 216 95 216 C96.81683001 203.48405996 105.09606038 194.23906723 114.8359375 186.55078125 C118.50548246 184 118.50548246 184 121 184 C121 183.34 121 182.68 121 182 C122.65 181.67 124.3 181.34 126 181 C126 180.34 126 179.68 126 179 C133.50216497 175.07216494 140.96613308 171.68849877 149 169 C136.91161394 158.3724461 121.09650342 155.28875213 105.375 156.19140625 C93.48044249 157.18124636 80.86820111 158.99584576 71 166 C70.2575 166.33 69.515 166.66 68.75 167 C66.4134574 168.3351672 65.9700574 169.50556668 65 172 C64.65582031 172.87785156 64.31164062 173.75570312 63.95703125 174.66015625 C62.86319984 178.47740464 62.76909876 181.72220511 62.8125 185.6875 C62.81894531 186.99074219 62.82539063 188.29398438 62.83203125 189.63671875 C62.84880753 192.993946 62.84880753 192.993946 64 196 C64.07347656 194.82244141 64.07347656 194.82244141 64.1484375 193.62109375 C64.5620036 187.80977697 65.11782148 182.521057 67 177 C67.66 177 68.32 177 69 177 C69.061875 176.443125 69.12375 175.88625 69.1875 175.3125 C70.57787872 171.35526826 73.58330264 168.90153468 77.0625 166.6875 C79 166 79 166 83 166 C82.1366915 168.90385585 81.20672562 171.62089502 79.75390625 174.28515625 C75.04465993 183.13000132 74.17161363 192.49996564 76.88671875 202.15234375 C83.50851165 217.83785318 96.50847911 228.61549894 111.85498047 235.17480469 C117.72760681 237.43402128 123.84373278 238.75751505 130 240 C130.86625 240.19078125 131.7325 240.3815625 132.625 240.578125 C148.03194873 243.31488563 163.82001921 238.07594806 176.625 229.6875 C177.40875 229.130625 178.1925 228.57375 179 228 C179.33 228.66 179.66 229.32 180 230 C172.31775997 240.90831666 161.62339261 249.4568545 150 256 C149.34 256 148.68 256 148 256 C148 256.66 148 257.32 148 258 C158.92419781 256.38070519 171.49203698 252.84981016 178.68359375 243.90625 C179.72923855 242.48196644 180.75007084 241.0389361 181.73828125 239.57421875 C182.15464844 239.05472656 182.57101562 238.53523437 183 238 C183.66 238 184.32 238 185 238 C180.42372881 252.97688752 180.42372881 252.97688752 175 258 C176.5207267 258.02753831 178.04160674 258.04663375 179.5625 258.0625 C180.40941406 258.07410156 181.25632812 258.08570313 182.12890625 258.09765625 C185.05646372 258.05190075 185.05646372 258.05190075 188.1484375 257.53515625 C207.01391756 254.91388772 229.76721224 253.62704471 247 263 C247 263.66 247 264.32 247 265 C246.41476562 264.9278125 245.82953125 264.855625 245.2265625 264.78125 C231.71106275 263.32011489 218.06976927 262.73186892 205 267 C204.67 267.33 204.34 267.66 204 268 C210.3634123 270.76622562 216.6630917 273.3695786 223.35546875 275.2265625 C225.67424477 275.90472742 227.95017848 276.64825708 230.23828125 277.421875 C233.28809135 278.44864335 236.3430224 279.40629573 239.4375 280.2890625 C254.52257418 284.65294725 268.94418829 290.44021966 280 302 C279.67 302.66 279.34 303.32 279 304 C278.01 303.67 277.02 303.34 276 303 C276 302.34 276 301.68 276 301 C275.4225 300.87496094 274.845 300.74992187 274.25 300.62109375 C271.97467544 299.99300937 270.10605944 299.11951847 268 298.0625 C261.08234876 294.91290713 253.56864173 293.83426332 246 294 C253.02581945 300.26697862 260.05040017 305.53633167 268.27368164 310.13061523 C269.87756154 311.03857863 271.44334199 312.01326596 273 313 C273 313.66 273 314.32 273 315 C273.73863281 315.27714844 274.47726562 315.55429687 275.23828125 315.83984375 C282.88734119 319.05309807 288.9326335 324.53800031 294.93359375 330.14453125 C296.86329646 332.04198998 296.86329646 332.04198998 299 333 C299 333.66 299 334.32 299 335 C299.66 335 300.32 335 301 335 C301 335.66 301 336.32 301 337 C301.66 337 302.32 337 303 337 C304.2890625 338.6796875 304.2890625 338.6796875 305.625 340.875 C306.07101562 341.59429687 306.51703125 342.31359375 306.9765625 343.0546875 C308 345 308 345 308 347 C308.66 347 309.32 347 310 347 C309.67 348.32 309.34 349.64 309 351 C308.30777344 350.25556641 308.30777344 350.25556641 307.6015625 349.49609375 C303.06609648 344.77239693 298.40359245 341.00533849 292.90625 337.4453125 C292.2771875 336.96835937 291.648125 336.49140625 291 336 C291 335.34 291 334.68 291 334 C290.34 334 289.68 334 289 334 C289.58007812 334.95519531 290.16015625 335.91039062 290.7578125 336.89453125 C297.86010279 348.6270271 304.39861145 360.01274752 309 373 C309.37125 373.9590625 309.7425 374.918125 310.125 375.90625 C311.1700787 379.60134969 311.26526823 382.85135805 311.25 386.6875 C311.25515625 387.99074219 311.2603125 389.29398437 311.265625 390.63671875 C311 394 311 394 309 397 C308.01 394.69 307.02 392.38 306 390 C305.85304688 390.73863281 305.70609375 391.47726562 305.5546875 392.23828125 C303.2338398 402.73544874 298.71075223 411.61155971 292 420 C291.34 420 290.68 420 290 420 C290 420.66 290 421.32 290 422 C289.34 422 288.68 422 288 422 C288 422.66 288 423.32 288 424 C287.34 424 286.68 424 286 424 C286 424.66 286 425.32 286 426 C268.72187097 440.73020217 247.90050593 447.2695902 226 451 C225.071875 451.1757959 224.14375 451.3515918 223.1875 451.53271484 C195.31660145 455.61856808 166.48818887 450.48329461 140 442 C139.33822754 441.79262207 138.67645508 441.58524414 137.99462891 441.37158203 C128.76371124 438.44565643 120.30057699 434.34747169 111.73925781 429.89306641 C109.55828369 428.77318947 107.34155165 427.7348397 105.125 426.6875 C92.8639641 420.52586267 81.24552926 413.13973425 71 404 C71.66 403.67 72.32 403.34 73 403 C75.6015625 403.99609375 75.6015625 403.99609375 78.625 405.4375 C79.62789063 405.91058594 80.63078125 406.38367188 81.6640625 406.87109375 C82.43492187 407.24363281 83.20578125 407.61617188 84 408 C84 408.66 84 409.32 84 410 C84.680625 410.103125 85.36125 410.20625 86.0625 410.3125 C89.62915989 411.14725019 92.66222194 412.49472754 96 414 C96 414.66 96 415.32 96 416 C97.26070312 416.14888672 97.26070312 416.14888672 98.546875 416.30078125 C102.41278953 417.08358521 105.70735287 418.52418127 109.25 420.1875 C151.09137767 439.08360604 204.8072463 448.60950282 249 432.6875 C256.52993149 429.57001244 263.36189024 425.34949335 269.5625 420.0625 C272 418 272 418 274 418 C274 417.34 274 416.68 274 416 C274.680625 415.34 275.36125 414.68 276.0625 414 C285.37803877 404.94910722 290.36697847 393.81851885 291.03125 380.8984375 C290.8168831 361.0159075 278.5249111 344.43626905 265 331 C259.45447562 325.39068953 259.45447562 325.39068953 253 321 C253 320.34 253 319.68 253 319 C252.44570313 318.74089844 251.89140625 318.48179687 251.3203125 318.21484375 C248.6908574 316.83814251 246.32394813 315.24048298 243.875 313.5625 C230.72404671 304.74720163 217.30767153 296.78717243 203 290 C202.09636719 289.55269531 201.19273437 289.10539062 200.26171875 288.64453125 C191.96874572 284.65926116 183.22600582 281.84472272 174.53369141 278.87304688 C172.14569698 278.05020354 169.76495494 277.20995872 167.38671875 276.359375 C166.29061279 275.96770142 166.29061279 275.96770142 165.17236328 275.56811523 C163.8380603 275.09025505 162.50432483 274.61080463 161.17138672 274.12915039 C156.00882121 272.28957715 150.78100479 270.69514471 145.53979492 269.09545898 C82.27678161 249.51747838 82.27678161 249.51747838 59 230 C59 229.34 59 228.68 59 228 C58.41734375 227.7421875 57.8346875 227.484375 57.234375 227.21875 C54.8197097 225.90165983 53.18259823 224.44911616 51.25 222.5 C50.63640625 221.8915625 50.0228125 221.283125 49.390625 220.65625 C48 219 48 219 48 217 C47.34 217 46.68 217 46 217 C34.22352112 203.55417489 27.98832541 184.18890543 28.62109375 166.41015625 C29.81988738 155.62101359 33.23456515 147.39466202 40 139 C40.63164062 138.13375 41.26328125 137.2675 41.9140625 136.375 C46.17735652 130.667961 50.60161946 126.26556351 57 123 C57.66 123 58.32 123 59 123 C59 122.34 59 121.68 59 121 C62.98330424 118.51043485 65.9428512 117.48940218 70.640625 118.29296875 C73.53760544 119.16110362 76.09762973 120.41668173 78.8125 121.75 C87.16919731 125.82980269 95.98831873 127.84937701 105 130 C105 130.99 105 131.98 105 133 C103.36804688 133.67482422 103.36804688 133.67482422 101.703125 134.36328125 C91.57958478 138.72948368 83.31201582 143.63133449 76 152 C76 152.66 76 153.32 76 154 C76.99 153.67 77.98 153.34 79 153 C79 152.34 79 151.68 79 151 C95.22535466 141.32719242 111.60368251 135.37534038 130 131 C127.2076919 128.2076919 123.77409881 127.68671905 119.9921875 127.32421875 C119.01403076 127.22125488 118.03587402 127.11829102 117.02807617 127.01220703 C115.98756104 126.90505371 114.9470459 126.79790039 113.875 126.6875 C99.90183821 125.08738321 86.7436846 122.28482681 74.06640625 116.015625 C71.891055 114.88887482 71.891055 114.88887482 69 114 C69 113.34 69 112.68 69 112 C68.20722656 111.93683594 67.41445312 111.87367187 66.59765625 111.80859375 C61.72079999 110.7124925 57.79182829 108.46361065 53.4375 106.0625 C46.39641707 102.15390123 46.39641707 102.15390123 39 99 C39 98.34 39 97.68 39 97 C38.13246094 96.88527344 37.26492187 96.77054687 36.37109375 96.65234375 C32.97138259 95.99446222 30.22173263 94.96152943 27.0625 93.5625 C14.94192245 88.37650689 3.95085675 87.84823215 -9 88 C-8.67 87.01 -8.34 86.02 -8 85 C-5.19921875 83.8671875 -5.19921875 83.8671875 -1.6875 82.875 C0.03919922 82.37613281 0.03919922 82.37613281 1.80078125 81.8671875 C2.85652344 81.58101563 3.91226563 81.29484375 5 81 C5.64001953 80.82202881 6.28003906 80.64405762 6.93945312 80.46069336 C25.6301635 76.281858 44.18509043 83.01644608 61.14453125 90.04296875 C77.8571929 96.89986736 95.63418522 100.64522091 113.30859375 104.0703125 C116.41857293 104.6737365 119.50667248 105.33587161 122.59375 106.046875 C126.73722448 106.98034741 130.84807006 107.59345028 135.0625 108.125 C135.73732422 108.21136719 136.41214844 108.29773438 137.10742188 108.38671875 C138.73781219 108.59485368 140.36884003 108.79798546 142 109 C141.01 108.38125 140.02 107.7625 139 107.125 C138.01 106.42375 137.02 105.7225 136 105 C136 104.34 136 103.68 136 103 C135.236875 102.71125 134.47375 102.4225 133.6875 102.125 C131 101 131 101 128 99 C128 98.34 128 97.68 128 97 C127.40832031 96.72929688 126.81664062 96.45859375 126.20703125 96.1796875 C123.42521895 94.6927719 121.37765207 92.76334888 119.07421875 90.6328125 C113.3996185 86.16580138 107.41136557 83.9857732 100.625 81.8125 C91.46365032 78.75080981 83.2228327 74.72962328 74.81982422 70.00732422 C70.9518549 67.86629371 66.97079454 65.94149413 63 64 C63 63.34 63 62.68 63 62 C62.43796875 61.89558594 61.8759375 61.79117188 61.296875 61.68359375 C58.57619529 60.87386765 56.60742193 59.63796662 54.25 58.0625 C53.45078125 57.53785156 52.6515625 57.01320312 51.828125 56.47265625 C51.22484375 55.98667969 50.6215625 55.50070313 50 55 C50 54.34 50 53.68 50 53 C49.28070313 52.7628125 48.56140625 52.525625 47.8203125 52.28125 C44.55422754 50.79748841 42.48139486 48.95495296 39.875 46.5 C37.29589521 44.08551892 34.94398389 41.96265593 32 40 C32 39.34 32 38.68 32 38 C30.68 37.34 29.36 36.68 28 36 C28 35.34 28 34.68 28 34 C27.34 34 26.68 34 26 34 C26 33.34 26 32.68 26 32 C25.34 32 24.68 32 24 32 C24 31.34 24 30.68 24 30 C23.34 30 22.68 30 22 30 C20.39365985 28.26608049 18.8624713 26.461909 17.375 24.625 C16.55773437 23.62726562 15.74046875 22.62953125 14.8984375 21.6015625 C13 19 13 19 13 17 C12.34 17 11.68 17 11 17 C0 4.87096774 0 4.87096774 0 0 Z M190 129 C191.32002058 132.57294032 192.89521388 135.63953492 195 138.8125 C195.515625 139.60269531 196.03125 140.39289063 196.5625 141.20703125 C197.036875 141.79871094 197.51125 142.39039063 198 143 C198.66 143 199.32 143 200 143 C200.23460937 143.58394531 200.46921875 144.16789063 200.7109375 144.76953125 C203.47106701 149.5453917 209.16815802 153.21942817 214.4375 154.671875 C216.81629563 154.99851716 216.81629563 154.99851716 220 155 C217.03747116 152.93923182 217.03747116 152.93923182 213.79296875 151.375 C209.13967589 148.7334461 205.85616936 144.94774064 202.3125 141 C201.01736915 139.58292918 199.72180903 138.16625055 198.42578125 136.75 C197.82975098 136.09515625 197.2337207 135.4403125 196.61962891 134.765625 C194.80043094 132.78244144 192.96699389 130.83777531 191 129 C190.67 129 190.34 129 190 129 Z M210 136 C211.39390539 139.15719572 213.03634972 141.2812653 215.5 143.6875 C216.41265625 144.59048828 216.41265625 144.59048828 217.34375 145.51171875 C219.91297994 147.82038999 220.9308103 147.99629341 224.5 148.1875 C228.05765911 148.38785276 228.05765911 148.38785276 230 146 C228.906875 145.34 227.81375 144.68 226.6875 144 C225.76517578 143.443125 225.76517578 143.443125 224.82421875 142.875 C222.88638074 141.78376001 222.88638074 141.78376001 220 142 C220 141.34 220 140.68 220 140 C218.71086513 139.32845067 217.41859796 138.66291141 216.125 138 C215.40570313 137.62875 214.68640625 137.2575 213.9453125 136.875 C212.05151023 135.86326254 212.05151023 135.86326254 210 136 Z " fill="#F0F0F0" transform="translate(97,0)"/>
<path d="M0 0 C2.25263864 1.49515796 4.09523376 3.05876621 5.77734375 5.1796875 C5.37902344 5.63859375 4.98070312 6.0975 4.5703125 6.5703125 C1.17718666 10.49643577 1.17718666 10.49643577 -1.97265625 14.6171875 C-2.38515625 15.1328125 -2.79765625 15.6484375 -3.22265625 16.1796875 C-3.88265625 16.1796875 -4.54265625 16.1796875 -5.22265625 16.1796875 C-5.22265625 16.8396875 -5.22265625 17.4996875 -5.22265625 18.1796875 C-5.88265625 18.1796875 -6.54265625 18.1796875 -7.22265625 18.1796875 C-7.485625 18.90285156 -7.74859375 19.62601563 -8.01953125 20.37109375 C-9.24672536 23.23587481 -10.71523999 25.54835157 -12.47265625 28.1171875 C-24.55176894 46.90133779 -29.76371992 69.74247987 -25.73046875 91.88134766 C-24.83310111 95.61867991 -23.71102992 99.23513582 -22.4140625 102.8515625 C-21.41155611 105.65200658 -20.7083368 108.25443914 -20.22265625 111.1796875 C-19.56265625 111.1796875 -18.90265625 111.1796875 -18.22265625 111.1796875 C-17.89652344 111.78296875 -17.57039063 112.38625 -17.234375 113.0078125 C-16.79738281 113.80703125 -16.36039062 114.60625 -15.91015625 115.4296875 C-15.26626953 116.61304688 -15.26626953 116.61304688 -14.609375 117.8203125 C-13.26920785 120.21141724 -13.26920785 120.21141724 -11.5546875 122.3515625 C-10.22265625 124.1796875 -10.22265625 124.1796875 -10.22265625 126.1796875 C-9.56265625 126.1796875 -8.90265625 126.1796875 -8.22265625 126.1796875 C-6.671875 127.75390625 -6.671875 127.75390625 -4.91015625 129.8671875 C0.22815851 135.99852489 5.67642634 140.74881369 12.21484375 145.3046875 C12.95283203 145.82933594 13.69082031 146.35398438 14.45117188 146.89453125 C18.42922654 149.68800964 22.3437047 152.14204039 26.77734375 154.1796875 C26.77734375 154.8396875 26.77734375 155.4996875 26.77734375 156.1796875 C27.44894531 156.26863281 28.12054688 156.35757813 28.8125 156.44921875 C32.58064248 157.37760168 35.80141358 159.077394 39.21484375 160.8671875 C50.60137011 166.68233279 62.11867523 171.46241139 74.3046875 175.38134766 C79.69941951 177.12313021 85.08202434 178.90150978 90.46484375 180.6796875 C91.59301514 181.04747314 92.72118652 181.41525879 93.88354492 181.79418945 C101.34212176 184.25786747 108.56704669 187.06799537 115.77734375 190.1796875 C116.74003174 190.58751465 117.70271973 190.9953418 118.69458008 191.41552734 C121.58087887 192.63907497 124.46083096 193.87660541 127.33984375 195.1171875 C128.76586914 195.72336914 128.76586914 195.72336914 130.22070312 196.34179688 C136.96208022 199.25190867 143.38836285 202.56297484 149.77734375 206.1796875 C149.77734375 206.8396875 149.77734375 207.4996875 149.77734375 208.1796875 C150.339375 208.28925781 150.90140625 208.39882813 151.48046875 208.51171875 C158.63211159 210.59153325 166.33611883 216.13363534 171.77734375 221.1796875 C171.77734375 221.8396875 171.77734375 222.4996875 171.77734375 223.1796875 C172.36128906 223.4478125 172.94523437 223.7159375 173.546875 223.9921875 C184.13102104 229.62717944 192.74845543 241.07290389 198.77734375 251.1796875 C199.67646484 252.68015625 199.67646484 252.68015625 200.59375 254.2109375 C207.34836014 266.05618284 209.5913803 275.62905305 207.77734375 289.1796875 C207.11734375 289.1796875 206.45734375 289.1796875 205.77734375 289.1796875 C205.73609375 289.8809375 205.69484375 290.5821875 205.65234375 291.3046875 C204.44887936 295.25892763 202.02564343 297.67237926 198.77734375 300.1796875 C198.11734375 300.1796875 197.45734375 300.1796875 196.77734375 300.1796875 C196.77734375 300.8396875 196.77734375 301.4996875 196.77734375 302.1796875 C188.36273295 306.85705047 180.11726856 310.72492225 170.77734375 313.1796875 C170.00156982 313.38682373 169.2257959 313.59395996 168.42651367 313.80737305 C163.42755433 315.0379274 158.92194548 315.36676393 153.77734375 315.1796875 C153.77734375 314.5196875 153.77734375 313.8596875 153.77734375 313.1796875 C154.5971875 312.85355469 155.41703125 312.52742188 156.26171875 312.19140625 C157.339375 311.75441406 158.41703125 311.31742187 159.52734375 310.8671875 C160.5946875 310.43792969 161.66203125 310.00867188 162.76171875 309.56640625 C165.4497101 308.33034805 167.45082225 306.96649793 169.77734375 305.1796875 C170.43734375 305.1796875 171.09734375 305.1796875 171.77734375 305.1796875 C171.77734375 304.5196875 171.77734375 303.8596875 171.77734375 303.1796875 C172.93622425 302.020807 174.09854428 300.86517562 175.27734375 299.7265625 C183.36356975 291.38764193 187.1475245 282.4790372 186.9921875 270.86328125 C186.41354956 263.63556738 183.87032685 257.68227085 179.765625 251.7734375 C178.77734375 250.1796875 178.77734375 250.1796875 178.77734375 248.1796875 C178.11734375 248.1796875 177.45734375 248.1796875 176.77734375 248.1796875 C175.6640625 246.60546875 175.6640625 246.60546875 174.46484375 244.4921875 C172.261241 240.83446316 169.92148659 238.10447153 166.77734375 235.1796875 C165.33581528 233.74622729 163.89855256 232.30846872 162.46484375 230.8671875 C161.76746094 230.16980469 161.07007813 229.47242188 160.3515625 228.75390625 C159.83207031 228.23441406 159.31257813 227.71492187 158.77734375 227.1796875 C158.77734375 228.1696875 158.77734375 229.1596875 158.77734375 230.1796875 C159.43734375 230.1796875 160.09734375 230.1796875 160.77734375 230.1796875 C161.43734375 232.1596875 162.09734375 234.1396875 162.77734375 236.1796875 C163.43734375 236.1796875 164.09734375 236.1796875 164.77734375 236.1796875 C179.02223159 263.75589555 179.02223159 263.75589555 175.12109375 279.89453125 C172.26769922 286.89272733 167.14254576 294.03187144 160.77734375 298.1796875 C160.11734375 298.1796875 159.45734375 298.1796875 158.77734375 298.1796875 C158.77734375 298.8396875 158.77734375 299.4996875 158.77734375 300.1796875 C130.86778895 313.37803771 98.66148281 311.36016181 69.64038086 301.44995117 C68.32661269 300.9532102 67.01623152 300.44740168 65.7097168 299.93188477 C63.7115494 299.15407633 61.69850033 298.46202703 59.6640625 297.78515625 C51.19269876 294.94043662 43.48977919 291.75205994 35.77734375 287.1796875 C34.66875 286.57253906 33.56015625 285.96539062 32.41796875 285.33984375 C25.33399451 281.45568033 18.87434962 277.23858534 12.49609375 272.2578125 C9.77929112 270.12362585 9.77929112 270.12362585 6.74609375 268.2265625 C3.68461225 266.11575157 1.33945215 263.86890826 -1.22265625 261.1796875 C-2.2577429 260.13926019 -3.29563901 259.10162237 -4.3359375 258.06640625 C-7.29817708 255.10416667 -10.26041667 252.14192708 -13.22265625 249.1796875 C-13.00609375 249.91574219 -12.78953125 250.65179688 -12.56640625 251.41015625 C-12.28796875 252.38597656 -12.00953125 253.36179687 -11.72265625 254.3671875 C-11.44421875 255.33011719 -11.16578125 256.29304688 -10.87890625 257.28515625 C-10.25588017 260.03314626 -10.09962813 262.37567166 -10.22265625 265.1796875 C-14.96361516 263.894238 -17.78624507 262.16514131 -21.34765625 258.8046875 C-22.17523438 258.03382813 -23.0028125 257.26296875 -23.85546875 256.46875 C-24.63664062 255.71335937 -25.4178125 254.95796875 -26.22265625 254.1796875 C-26.98320313 253.46554687 -27.74375 252.75140625 -28.52734375 252.015625 C-30.22265625 250.1796875 -30.22265625 250.1796875 -30.22265625 248.1796875 C-30.88265625 248.1796875 -31.54265625 248.1796875 -32.22265625 248.1796875 C-38.44214747 239.71604996 -41.75889748 229.97043596 -45.22265625 220.1796875 C-45.87909027 218.50896412 -46.54112107 216.84032955 -47.22265625 215.1796875 C-48.73658164 236.37464297 -36.20823675 259.38710616 -23.41015625 275.55859375 C-21.89758833 277.62344798 -20.98399217 279.74341256 -20.22265625 282.1796875 C-19.56265625 282.1796875 -18.90265625 282.1796875 -18.22265625 282.1796875 C-16.91796875 283.69140625 -16.91796875 283.69140625 -15.34765625 285.8671875 C-4.33214614 300.8362939 -4.33214614 300.8362939 9.77734375 312.1796875 C9.77734375 312.8396875 9.77734375 313.4996875 9.77734375 314.1796875 C10.31488281 314.41429687 10.85242188 314.64890625 11.40625 314.890625 C14.44142776 316.54072164 17.02734427 318.65517223 19.71484375 320.8046875 C30.87542741 329.52453361 43.00944045 336.15156266 55.77734375 342.1796875 C56.90785156 342.7159375 58.03835937 343.2521875 59.203125 343.8046875 C74.06235407 350.50967453 89.67648305 354.73711489 105.81274414 356.91333008 C107.65244234 357.16275356 109.48674801 357.45108134 111.3203125 357.7421875 C117.2598304 358.46628867 123.25412393 358.36568295 129.22875977 358.36499023 C131.3109239 358.3671574 133.39253988 358.38530844 135.47460938 358.40429688 C148.28348029 358.45949444 160.68771118 356.98723743 173.15234375 353.9296875 C174.47987671 353.60762329 174.47987671 353.60762329 175.83422852 353.27905273 C184.36641635 351.14198586 192.59196673 348.38483005 200.77734375 345.1796875 C201.96585937 344.71820313 203.154375 344.25671875 204.37890625 343.78125 C218.11321661 338.16971462 230.43300999 330.74862161 242.37036133 321.98974609 C243.38779419 321.246521 243.38779419 321.246521 244.42578125 320.48828125 C245.02567871 320.04282959 245.62557617 319.59737793 246.24365234 319.13842773 C247.77734375 318.1796875 247.77734375 318.1796875 249.77734375 318.1796875 C249.77734375 317.5196875 249.77734375 316.8596875 249.77734375 316.1796875 C250.43734375 316.1796875 251.09734375 316.1796875 251.77734375 316.1796875 C251.77734375 315.5196875 251.77734375 314.8596875 251.77734375 314.1796875 C253.39452686 312.7468157 255.07357747 311.38344001 256.77734375 310.0546875 C263.09903947 304.98433001 269.02417897 299.87976326 273.65234375 293.1796875 C274.35359375 292.1896875 275.05484375 291.1996875 275.77734375 290.1796875 C276.43734375 290.1796875 277.09734375 290.1796875 277.77734375 290.1796875 C278.03 289.45265625 278.28265625 288.725625 278.54296875 287.9765625 C279.86536555 284.9802457 281.42064615 282.92832884 283.52734375 280.4296875 C290.77490286 271.53969592 295.89812699 262.26543049 300.8828125 251.99072266 C301.97853558 249.7723619 303.16437906 247.60661718 304.33984375 245.4296875 C307.34201534 239.51724753 309.3019304 233.15657107 311.36743164 226.87011719 C311.79270142 225.5982959 311.79270142 225.5982959 312.2265625 224.30078125 C312.47752686 223.5317749 312.72849121 222.76276855 312.98706055 221.97045898 C313.77734375 220.1796875 313.77734375 220.1796875 315.77734375 219.1796875 C316.05096547 225.93975353 315.0545555 232.07540121 313.65234375 238.6796875 C313.42716064 239.74050537 313.20197754 240.80132324 312.9699707 241.89428711 C310.03015796 255.18240197 305.32881385 266.88179555 298.69921875 278.734375 C297.54595578 280.80180984 296.42119667 282.8861111 295.35546875 285 C291.19278374 293.2029381 285.63386551 300.3054998 280.01074219 307.54492188 C278.87619755 309.04866513 277.82224865 310.61233015 276.77734375 312.1796875 C276.11734375 312.1796875 275.45734375 312.1796875 274.77734375 312.1796875 C274.53757812 312.73398437 274.2978125 313.28828125 274.05078125 313.859375 C272.48890203 316.70525308 270.57128671 318.89074766 268.40234375 321.3046875 C267.63148438 322.17351562 266.860625 323.04234375 266.06640625 323.9375 C263.77734375 326.1796875 263.77734375 326.1796875 261.61328125 327.234375 C259.20781311 328.47293519 258.95202051 329.77398416 257.77734375 332.1796875 C256.18952632 333.80110953 254.53426924 335.35752003 252.83984375 336.8671875 C252.35185303 337.30216553 251.8638623 337.73714355 251.36108398 338.18530273 C243.39722681 345.23148225 235.10074389 351.78260384 226.50390625 358.0390625 C223.70226175 360.2386344 221.28452992 362.65535818 218.77734375 365.1796875 C218.05546875 365.5303125 217.33359375 365.8809375 216.58984375 366.2421875 C214.62102719 367.0252164 214.62102719 367.0252164 213.93359375 369.01171875 C212.50809869 371.68452199 210.86586318 372.97264915 208.46484375 374.8046875 C207.70558594 375.39507812 206.94632812 375.98546875 206.1640625 376.59375 C203.76846711 378.18558589 201.47880394 379.21385572 198.77734375 380.1796875 C198.77734375 380.8396875 198.77734375 381.4996875 198.77734375 382.1796875 C191.1994452 386.38522282 184.41974532 389.19295661 175.77734375 390.1796875 C176.77734375 387.1796875 176.77734375 387.1796875 179.77734375 385.1796875 C180.76734375 385.1796875 181.75734375 385.1796875 182.77734375 385.1796875 C182.77734375 384.5196875 182.77734375 383.8596875 182.77734375 383.1796875 C187.16195913 380.1796875 187.16195913 380.1796875 189.77734375 380.1796875 C189.77734375 379.5196875 189.77734375 378.8596875 189.77734375 378.1796875 C191.42737203 376.82581814 193.09478245 375.49290608 194.77734375 374.1796875 C195.10734375 373.5196875 195.43734375 372.8596875 195.77734375 372.1796875 C196.43734375 372.1796875 197.09734375 372.1796875 197.77734375 372.1796875 C197.77734375 371.5196875 197.77734375 370.8596875 197.77734375 370.1796875 C196.53082031 370.57800781 195.28429687 370.97632813 194 371.38671875 C183.0014782 374.83680886 172.205017 377.64592629 160.77734375 379.1796875 C159.65803467 379.3341333 159.65803467 379.3341333 158.51611328 379.49169922 C143.95216883 381.42480403 129.44699389 381.40468213 114.77734375 381.1796875 C116.67535101 381.99104362 118.57551496 382.79735571 120.4765625 383.6015625 C121.53447998 384.05112305 122.59239746 384.50068359 123.68237305 384.96386719 C131.80991956 388.15667161 140.11258578 388.49078608 148.75 388.8359375 C149.74902344 388.949375 150.74804688 389.0628125 151.77734375 389.1796875 C152.10734375 389.8396875 152.43734375 390.4996875 152.77734375 391.1796875 C145.37204802 393.22224709 138.34328484 393.52035769 130.67773438 393.49536133 C128.67702791 393.49222618 126.67633936 393.51645082 124.67578125 393.54101562 C96.61053773 393.55482726 70.83520737 381.56324947 46.69091797 368.23339844 C44.13203858 366.82434977 41.5575917 365.44508244 38.98291016 364.06518555 C36.5779755 362.77571285 34.17757055 361.47789712 31.77734375 360.1796875 C31.77734375 359.5196875 31.77734375 358.8596875 31.77734375 358.1796875 C30.91496094 357.92703125 30.05257812 357.674375 29.1640625 357.4140625 C25.60277345 356.11606095 22.77735926 354.47286514 19.58984375 352.4296875 C9.27834285 345.47458584 9.27834285 345.47458584 -2.22265625 341.1796875 C5.10467085 355.59379812 13.47952739 366.71777971 26.77734375 376.1796875 C26.77734375 376.8396875 26.77734375 377.4996875 26.77734375 378.1796875 C27.76734375 378.5096875 28.75734375 378.8396875 29.77734375 379.1796875 C28.09375 379.859375 28.09375 379.859375 25.77734375 380.1796875 C23.3046875 379 23.3046875 379 20.71484375 377.3046875 C18.00475326 375.55229816 15.84942549 374.20371475 12.77734375 373.1796875 C12.77734375 372.5196875 12.77734375 371.8596875 12.77734375 371.1796875 C12.06449219 370.93734375 11.35164063 370.695 10.6171875 370.4453125 C3.06830155 367.0810222 -3.71129758 360.28686873 -9.22265625 354.1796875 C-9.22265625 353.5196875 -9.22265625 352.8596875 -9.22265625 352.1796875 C-9.84140625 351.9321875 -10.46015625 351.6846875 -11.09765625 351.4296875 C-13.57334312 349.97340111 -14.17390627 348.80156244 -15.22265625 346.1796875 C-15.88265625 346.1796875 -16.54265625 346.1796875 -17.22265625 346.1796875 C-17.88265625 344.5296875 -18.54265625 342.8796875 -19.22265625 341.1796875 C-19.88265625 341.1796875 -20.54265625 341.1796875 -21.22265625 341.1796875 C-22.62884326 339.20561727 -23.9299415 337.2257312 -25.22265625 335.1796875 C-25.98346623 334.06311016 -26.74919181 332.94986804 -27.51953125 331.83984375 C-34.55932059 321.55772694 -40.4406794 310.96810135 -45.84765625 299.7421875 C-47.82766692 295.69431585 -50.2458216 292.26456233 -53.0859375 288.7734375 C-54.22265625 287.1796875 -54.22265625 287.1796875 -54.22265625 285.1796875 C-54.88265625 285.1796875 -55.54265625 285.1796875 -56.22265625 285.1796875 C-56.22265625 284.5196875 -56.22265625 283.8596875 -56.22265625 283.1796875 C-57.54265625 282.5196875 -58.86265625 281.8596875 -60.22265625 281.1796875 C-60.22265625 280.5196875 -60.22265625 279.8596875 -60.22265625 279.1796875 C-60.88265625 279.1796875 -61.54265625 279.1796875 -62.22265625 279.1796875 C-63.74006601 277.48065727 -65.18778425 275.71896027 -66.59765625 273.9296875 C-69.32547018 270.48114682 -72.04721954 267.22462681 -75.22265625 264.1796875 C-73.32460525 274.53269294 -69.19519515 283.73423984 -64.140625 292.92578125 C-63.09462255 295.49405109 -63.05305657 297.43217274 -63.22265625 300.1796875 C-64.59828479 298.89003574 -65.93032018 297.55279457 -67.22265625 296.1796875 C-67.22265625 295.5196875 -67.22265625 294.8596875 -67.22265625 294.1796875 C-67.88265625 294.1796875 -68.54265625 294.1796875 -69.22265625 294.1796875 C-80.90747352 279.64267074 -90.58618379 261.57647718 -97.22265625 244.1796875 C-97.48626953 243.49600098 -97.74988281 242.81231445 -98.02148438 242.10791016 C-101.62788677 232.64219014 -104.63131228 223.08473753 -106.78466797 213.18359375 C-107.21179555 211.22937792 -107.67189781 209.28246136 -108.1328125 207.3359375 C-112.83910697 185.53249546 -112.40560485 160.29020374 -105.22265625 139.1796875 C-104.98740234 138.47730957 -104.75214844 137.77493164 -104.50976562 137.05126953 C-99.54837913 122.66939918 -91.73677863 108.37791018 -80.22265625 98.1796875 C-79.56265625 98.1796875 -78.90265625 98.1796875 -78.22265625 98.1796875 C-78.22265625 97.5196875 -78.22265625 96.8596875 -78.22265625 96.1796875 C-76.03515625 94.671875 -76.03515625 94.671875 -73.22265625 93.0546875 C-72.29453125 92.51585937 -71.36640625 91.97703125 -70.41015625 91.421875 C-69.68828125 91.01195312 -68.96640625 90.60203125 -68.22265625 90.1796875 C-67.23265625 91.1696875 -67.23265625 91.1696875 -66.22265625 92.1796875 C-67.5032811 93.8871873 -68.84033182 95.55342346 -70.22265625 97.1796875 C-70.88265625 97.1796875 -71.54265625 97.1796875 -72.22265625 97.1796875 C-72.88265625 98.8296875 -73.54265625 100.4796875 -74.22265625 102.1796875 C-74.88265625 102.1796875 -75.54265625 102.1796875 -76.22265625 102.1796875 C-76.47144531 102.829375 -76.72023437 103.4790625 -76.9765625 104.1484375 C-77.95141686 106.51987004 -78.9760211 108.82828987 -80.0625 111.1484375 C-85.50951976 122.85274544 -89.44046665 134.17578542 -90.22265625 147.1796875 C-90.26390625 147.82421875 -90.30515625 148.46875 -90.34765625 149.1328125 C-90.92686308 168.10183632 -85.64199928 185.5585058 -76.76318359 202.14282227 C-74.22265625 206.90367885 -74.22265625 206.90367885 -74.22265625 210.1796875 C-73.56265625 210.1796875 -72.90265625 210.1796875 -72.22265625 210.1796875 C-70.56640625 212.26171875 -70.56640625 212.26171875 -68.72265625 214.9921875 C-68.11421875 215.88550781 -67.50578125 216.77882813 -66.87890625 217.69921875 C-65.65943003 219.52555696 -64.44080535 221.35246384 -63.22265625 223.1796875 C-63.07570312 222.36886719 -62.92875 221.55804688 -62.77734375 220.72265625 C-59.94325922 206.73139985 -53.03410305 193.6940145 -41.22265625 185.1796875 C-40.56265625 185.1796875 -39.90265625 185.1796875 -39.22265625 185.1796875 C-39.16319824 186.10696655 -39.16319824 186.10696655 -39.10253906 187.05297852 C-37.83848936 205.86532045 -35.54064251 224.85035272 -25.22265625 241.1796875 C-24.46902573 237.82876979 -24.10285688 234.74858938 -24.125 231.31640625 C-24.12822266 230.43017578 -24.13144531 229.54394531 -24.13476562 228.63085938 C-24.14314453 227.71884766 -24.15152344 226.80683594 -24.16015625 225.8671875 C-24.16466797 224.93583984 -24.16917969 224.00449219 -24.17382812 223.04492188 C-24.18556391 220.75644377 -24.20198262 218.46809942 -24.22265625 216.1796875 C-23.56265625 216.1796875 -22.90265625 216.1796875 -22.22265625 216.1796875 C-21.15280383 217.86652868 -20.16926485 219.60822488 -19.22265625 221.3671875 C-16.09908699 226.91070094 -12.57811623 231.85418076 -8.59960938 236.81323242 C-6.46154288 239.49212873 -4.59417656 242.02746403 -3.22265625 245.1796875 C-2.56265625 245.1796875 -1.90265625 245.1796875 -1.22265625 245.1796875 C0.36328125 246.82421875 0.36328125 246.82421875 2.15234375 248.9921875 C4.01300657 251.24219607 5.64607078 253.08319035 8.00390625 254.81640625 C8.58914062 255.26628906 9.174375 255.71617187 9.77734375 256.1796875 C9.77734375 256.8396875 9.77734375 257.4996875 9.77734375 258.1796875 C10.43734375 258.1796875 11.09734375 258.1796875 11.77734375 258.1796875 C11.77734375 258.8396875 11.77734375 259.4996875 11.77734375 260.1796875 C12.31101562 260.42203125 12.8446875 260.664375 13.39453125 260.9140625 C16.41630078 262.51906796 19.1104314 264.45180261 21.90234375 266.4296875 C33.9417725 274.86423312 46.00996122 281.04908583 59.77734375 286.1796875 C60.3919043 286.42630127 61.00646484 286.67291504 61.63964844 286.92700195 C66.6891285 288.92058083 71.70947843 290.18123407 77.02734375 291.2421875 C77.79691406 291.40267578 78.56648437 291.56316406 79.359375 291.72851562 C81.82816465 292.23488187 84.30100895 292.7116453 86.77734375 293.1796875 C87.71578125 293.36208984 88.65421875 293.54449219 89.62109375 293.73242188 C104.1663616 296.38826594 122.22920494 298.19445988 135.77734375 291.1796875 C136.93556641 290.61894531 136.93556641 290.61894531 138.1171875 290.046875 C143.15402836 287.29619518 145.61226183 284.50218055 147.77734375 279.1796875 C148.47363675 274.49309997 147.90672588 270.43845176 145.77734375 266.1796875 C145.3184375 266.67339844 144.85953125 267.16710937 144.38671875 267.67578125 C143.773125 268.31644531 143.15953125 268.95710938 142.52734375 269.6171875 C141.9240625 270.25527344 141.32078125 270.89335937 140.69921875 271.55078125 C138.67686359 273.26485056 137.3646377 273.77327628 134.77734375 274.1796875 C134.77734375 274.8396875 134.77734375 275.4996875 134.77734375 276.1796875 C133.09328106 276.83443158 131.40488039 277.47802156 129.71484375 278.1171875 C128.77511719 278.47683594 127.83539063 278.83648437 126.8671875 279.20703125 C112.86304036 283.61541638 97.388957 280.49408277 83.77734375 276.1796875 C82.01390625 275.66148437 82.01390625 275.66148437 80.21484375 275.1328125 C74.04641948 273.24155034 74.04641948 273.24155034 71.77734375 272.1796875 C71.44734375 271.1896875 71.11734375 270.1996875 70.77734375 269.1796875 C71.62554687 269.37304688 72.47375 269.56640625 73.34765625 269.765625 C98.76384271 275.6710194 98.76384271 275.6710194 123.27734375 268.8671875 C127.90407113 265.67368752 130.67912563 261.70128418 131.77734375 256.1796875 C133.32728439 241.18845835 127.44852669 228.88498601 118.77734375 217.1796875 C118.19082031 216.59574219 117.60429687 216.01179687 117 215.41015625 C115.77734375 214.1796875 115.77734375 214.1796875 115.77734375 212.1796875 C114.97296875 211.839375 114.97296875 211.839375 114.15234375 211.4921875 C110.95274214 209.72398661 108.48697152 207.64298547 105.77734375 205.1796875 C105.77734375 204.5196875 105.77734375 203.8596875 105.77734375 203.1796875 C105.05546875 202.9321875 104.33359375 202.6846875 103.58984375 202.4296875 C100.77734375 201.1796875 100.77734375 201.1796875 98.59375 199.359375 C95.21850635 196.74718921 91.72010366 194.93145545 87.90234375 193.0546875 C87.22042969 192.70792969 86.53851563 192.36117187 85.8359375 192.00390625 C81.55026391 189.87331424 77.41760668 188.35489769 72.77734375 187.1796875 C73.49921875 187.58960938 74.22109375 187.99953125 74.96484375 188.421875 C75.89296875 188.96070313 76.82109375 189.49953125 77.77734375 190.0546875 C78.70546875 190.58835937 79.63359375 191.12203125 80.58984375 191.671875 C81.31171875 192.16945313 82.03359375 192.66703125 82.77734375 193.1796875 C82.77734375 193.8396875 82.77734375 194.4996875 82.77734375 195.1796875 C84.09734375 195.8396875 85.41734375 196.4996875 86.77734375 197.1796875 C86.77734375 197.8396875 86.77734375 198.4996875 86.77734375 199.1796875 C87.76734375 199.5096875 88.75734375 199.8396875 89.77734375 200.1796875 C91.3125 202.32421875 91.3125 202.32421875 92.83984375 204.9921875 C93.34644531 205.86488281 93.85304687 206.73757813 94.375 207.63671875 C94.83777344 208.47589844 95.30054688 209.31507813 95.77734375 210.1796875 C96.34001953 211.14841797 96.34001953 211.14841797 96.9140625 212.13671875 C99.19436326 217.53308662 99.25615605 224.19603656 97.90234375 229.8046875 C97.20830604 231.26987823 96.50239164 232.72959172 95.77734375 234.1796875 C94.78734375 233.8496875 93.79734375 233.5196875 92.77734375 233.1796875 C92.66777344 232.51582031 92.55820313 231.85195313 92.4453125 231.16796875 C91.55574206 226.21385694 90.67360066 222.39242482 87.77734375 218.1796875 C87.77734375 217.5196875 87.77734375 216.8596875 87.77734375 216.1796875 C87.11734375 216.1796875 86.45734375 216.1796875 85.77734375 216.1796875 C85.77734375 215.5196875 85.77734375 214.8596875 85.77734375 214.1796875 C85.11734375 214.1796875 84.45734375 214.1796875 83.77734375 214.1796875 C83.77734375 213.5196875 83.77734375 212.8596875 83.77734375 212.1796875 C82.45734375 211.8496875 81.13734375 211.5196875 79.77734375 211.1796875 C79.77734375 210.5196875 79.77734375 209.8596875 79.77734375 209.1796875 C79.03484375 208.8909375 78.29234375 208.6021875 77.52734375 208.3046875 C75.20994578 207.35666106 72.9981726 206.33122839 70.77734375 205.1796875 C70.77734375 204.5196875 70.77734375 203.8596875 70.77734375 203.1796875 C70.18904785 203.04481934 69.60075195 202.90995117 68.99462891 202.77099609 C58.87626273 200.07261656 49.07909437 193.97286543 40.21484375 188.5546875 C39.12792236 187.89073975 39.12792236 187.89073975 38.01904297 187.21337891 C27.8321178 180.85915825 27.8321178 180.85915825 23.77734375 177.1796875 C23.77734375 176.5196875 23.77734375 175.8596875 23.77734375 175.1796875 C22.12734375 174.5196875 20.47734375 173.8596875 18.77734375 173.1796875 C18.77734375 172.5196875 18.77734375 171.8596875 18.77734375 171.1796875 C18.15859375 170.8703125 17.53984375 170.5609375 16.90234375 170.2421875 C15.52734375 169.5546875 14.15234375 168.8671875 12.77734375 168.1796875 C12.77734375 167.5196875 12.77734375 166.8596875 12.77734375 166.1796875 C12.11734375 166.1796875 11.45734375 166.1796875 10.77734375 166.1796875 C10.77734375 165.5196875 10.77734375 164.8596875 10.77734375 164.1796875 C9.94203125 163.839375 9.94203125 163.839375 9.08984375 163.4921875 C6.12480928 161.8093301 4.12380686 159.64347376 1.77734375 157.1796875 C1.01421875 156.4578125 0.25109375 155.7359375 -0.53515625 154.9921875 C-2.22265625 153.1796875 -2.22265625 153.1796875 -2.22265625 151.1796875 C-4.20265625 150.1896875 -4.20265625 150.1896875 -6.22265625 149.1796875 C-7.16766677 163.11859274 -1.32051232 176.75614384 7.77734375 187.1796875 C8.43734375 187.5096875 9.09734375 187.8396875 9.77734375 188.1796875 C9.77734375 188.8396875 9.77734375 189.4996875 9.77734375 190.1796875 C8.45734375 190.1796875 7.13734375 190.1796875 5.77734375 190.1796875 C5.77734375 189.5196875 5.77734375 188.8596875 5.77734375 188.1796875 C4.44316406 187.82390625 4.44316406 187.82390625 3.08203125 187.4609375 C-0.57079028 186.04471355 -2.39556794 184.48185315 -5.09765625 181.6796875 C-5.87882812 180.885625 -6.66 180.0915625 -7.46484375 179.2734375 C-9.22265625 177.1796875 -9.22265625 177.1796875 -9.22265625 175.1796875 C-9.88265625 175.1796875 -10.54265625 175.1796875 -11.22265625 175.1796875 C-26.44106212 157.07877299 -32.23203113 132.96825729 -36.22265625 110.1796875 C-36.88265625 110.1796875 -37.54265625 110.1796875 -38.22265625 110.1796875 C-38.22265625 110.8396875 -38.22265625 111.4996875 -38.22265625 112.1796875 C-38.88265625 112.1796875 -39.54265625 112.1796875 -40.22265625 112.1796875 C-40.22265625 112.8396875 -40.22265625 113.4996875 -40.22265625 114.1796875 C-40.88265625 114.1796875 -41.54265625 114.1796875 -42.22265625 114.1796875 C-42.88265625 115.8296875 -43.54265625 117.4796875 -44.22265625 119.1796875 C-44.88265625 119.1796875 -45.54265625 119.1796875 -46.22265625 119.1796875 C-46.47015625 120.0046875 -46.71765625 120.8296875 -46.97265625 121.6796875 C-47.9291745 124.35793861 -48.9302603 126.67205358 -50.22265625 129.1796875 C-53.66432698 135.9483066 -54.97776769 142.73684314 -56.22265625 150.1796875 C-56.88265625 150.1796875 -57.54265625 150.1796875 -58.22265625 150.1796875 C-61.62498726 125.08749631 -53.73084449 104.48155208 -44.02636719 81.82446289 C-40.97494962 74.69656612 -38.19757577 67.77931959 -36.53515625 60.1796875 C-36.28378906 59.0453125 -36.03242187 57.9109375 -35.7734375 56.7421875 C-35.59167969 55.8965625 -35.40992187 55.0509375 -35.22265625 54.1796875 C-38.88398252 56.28034052 -42.17882918 58.60416732 -45.47265625 61.2421875 C-46.77976562 62.28052734 -46.77976562 62.28052734 -48.11328125 63.33984375 C-50.294885 65.00740292 -50.294885 65.00740292 -51.22265625 67.1796875 C-51.88265625 67.1796875 -52.54265625 67.1796875 -53.22265625 67.1796875 C-53.49078125 67.74171875 -53.75890625 68.30375 -54.03515625 68.8828125 C-55.30305415 71.33519396 -56.71237967 73.61896433 -58.22265625 75.9296875 C-58.73828125 76.72890625 -59.25390625 77.528125 -59.78515625 78.3515625 C-60.25953125 78.95484375 -60.73390625 79.558125 -61.22265625 80.1796875 C-61.88265625 80.1796875 -62.54265625 80.1796875 -63.22265625 80.1796875 C-62.91461848 72.32472438 -59.69175141 66.13909553 -56.22265625 59.1796875 C-55.56265625 59.1796875 -54.90265625 59.1796875 -54.22265625 59.1796875 C-54.07828125 58.5609375 -53.93390625 57.9421875 -53.78515625 57.3046875 C-53.22265625 55.1796875 -53.22265625 55.1796875 -52.22265625 53.1796875 C-51.56265625 53.1796875 -50.90265625 53.1796875 -50.22265625 53.1796875 C-49.95453125 52.4371875 -49.68640625 51.6946875 -49.41015625 50.9296875 C-48.26988874 48.28906801 -47.12885319 46.32415906 -45.22265625 44.1796875 C-44.56265625 44.1796875 -43.90265625 44.1796875 -43.22265625 44.1796875 C-42.96291016 43.59541992 -42.70316406 43.01115234 -42.43554688 42.40917969 C-41.13800025 40.02407586 -39.72924503 38.42778113 -37.81640625 36.5078125 C-37.15511719 35.84394531 -36.49382812 35.18007812 -35.8125 34.49609375 C-35.12285156 33.81417969 -34.43320313 33.13226563 -33.72265625 32.4296875 C-33.03300781 31.73230469 -32.34335938 31.03492188 -31.6328125 30.31640625 C-30.64087891 29.32833984 -30.64087891 29.32833984 -29.62890625 28.3203125 C-29.02369141 27.71735352 -28.41847656 27.11439453 -27.79492188 26.49316406 C-26.22265625 25.1796875 -26.22265625 25.1796875 -24.22265625 25.1796875 C-24.22265625 24.5196875 -24.22265625 23.8596875 -24.22265625 23.1796875 C-23.56265625 23.1796875 -22.90265625 23.1796875 -22.22265625 23.1796875 C-21.95453125 22.5403125 -21.68640625 21.9009375 -21.41015625 21.2421875 C-20.22265625 19.1796875 -20.22265625 19.1796875 -17.22265625 18.1796875 C-17.22265625 17.5196875 -17.22265625 16.8596875 -17.22265625 16.1796875 C-26.09783717 18.293451 -33.17179901 20.87459653 -40.89453125 25.7890625 C-43.22265625 27.1796875 -43.22265625 27.1796875 -45.22265625 27.1796875 C-43.91651683 23.26126923 -42.39135777 20.85327941 -39.22265625 18.1796875 C-38.56265625 18.1796875 -37.90265625 18.1796875 -37.22265625 18.1796875 C-37.22265625 17.5196875 -37.22265625 16.8596875 -37.22265625 16.1796875 C-36.56265625 16.1796875 -35.90265625 16.1796875 -35.22265625 16.1796875 C-35.22265625 15.5196875 -35.22265625 14.8596875 -35.22265625 14.1796875 C-30.76910239 10.8564429 -25.98753425 8.03209185 -21.22265625 5.1796875 C-20.28607178 4.60903564 -20.28607178 4.60903564 -19.33056641 4.02685547 C-6.99560461 -3.36101674 -6.99560461 -3.36101674 0 0 Z M-65.22265625 234.1796875 C-63.22061086 251.09351926 -53.32322641 271.07737518 -42.22265625 284.1796875 C-41.56265625 284.1796875 -40.90265625 284.1796875 -40.22265625 284.1796875 C-39.95453125 284.7365625 -39.68640625 285.2934375 -39.41015625 285.8671875 C-36.88650924 290.78165799 -34.23586645 294.34889594 -30.22265625 298.1796875 C-28.9685012 299.40461436 -27.71865008 300.63396 -26.47265625 301.8671875 C-25.8796875 302.44855469 -25.28671875 303.02992188 -24.67578125 303.62890625 C-23.22265625 305.1796875 -23.22265625 305.1796875 -22.22265625 307.1796875 C-21.56265625 307.1796875 -20.90265625 307.1796875 -20.22265625 307.1796875 C-20.22265625 307.8396875 -20.22265625 308.4996875 -20.22265625 309.1796875 C-18.50933636 310.99036124 -18.50933636 310.99036124 -16.34765625 312.8046875 C-15.62835938 313.43632812 -14.9090625 314.06796875 -14.16796875 314.71875 C-12.36158692 316.37985873 -12.36158692 316.37985873 -10.22265625 316.1796875 C-10.22265625 316.8396875 -10.22265625 317.4996875 -10.22265625 318.1796875 C-7.16707202 321.20486659 -7.16707202 321.20486659 -3.22265625 322.1796875 C-3.22265625 322.8396875 -3.22265625 323.4996875 -3.22265625 324.1796875 C-1.90265625 324.5096875 -0.58265625 324.8396875 0.77734375 325.1796875 C0.77734375 325.8396875 0.77734375 326.4996875 0.77734375 327.1796875 C2.72348902 328.77317611 2.72348902 328.77317611 5.15234375 330.3046875 C5.96445313 330.84351563 6.7765625 331.38234375 7.61328125 331.9375 C9.65056401 333.3456288 9.65056401 333.3456288 11.77734375 333.1796875 C11.77734375 333.8396875 11.77734375 334.4996875 11.77734375 335.1796875 C14.00422351 336.47543621 16.2336755 337.76636058 18.46484375 339.0546875 C19.09068359 339.41949219 19.71652344 339.78429687 20.36132812 340.16015625 C23.75929317 342.11709947 27.07801994 343.83576489 30.77734375 345.1796875 C27.19603414 341.24212196 23.02258877 338.40833393 18.65234375 335.4296875 C17.92402344 334.92308594 17.19570312 334.41648437 16.4453125 333.89453125 C15.74792969 333.41628906 15.05054688 332.93804687 14.33203125 332.4453125 C13.69765137 332.00993164 13.06327148 331.57455078 12.40966797 331.12597656 C10.80342846 330.01250882 10.80342846 330.01250882 8.77734375 330.1796875 C8.77734375 329.5196875 8.77734375 328.8596875 8.77734375 328.1796875 C7.52914464 327.12593147 6.22343408 326.14048047 4.90234375 325.1796875 C-0.74221336 320.79762152 -5.74220385 315.86059866 -10.78515625 310.8046875 C-11.5951709 309.99515625 -12.40518555 309.185625 -13.23974609 308.3515625 C-19.0870861 302.4508278 -19.0870861 302.4508278 -20.22265625 300.1796875 C-20.88265625 300.1796875 -21.54265625 300.1796875 -22.22265625 300.1796875 C-22.88265625 298.5296875 -23.54265625 296.8796875 -24.22265625 295.1796875 C-24.88265625 295.1796875 -25.54265625 295.1796875 -26.22265625 295.1796875 C-26.47917969 294.44363281 -26.73570313 293.70757812 -27 292.94921875 C-28.27788063 290.05459457 -29.70373015 288.23454688 -31.78515625 285.8671875 C-38.29112363 277.92849806 -42.83019441 268.7935006 -47.546875 259.72265625 C-53.48088701 247.86837969 -53.48088701 247.86837969 -61.22265625 237.1796875 C-61.88265625 237.1796875 -62.54265625 237.1796875 -63.22265625 237.1796875 C-63.55265625 236.1896875 -63.88265625 235.1996875 -64.22265625 234.1796875 C-64.55265625 234.1796875 -64.88265625 234.1796875 -65.22265625 234.1796875 Z M30.77734375 345.1796875 C34.06539356 348.09196019 36.37619978 349.67669962 40.77734375 350.1796875 C36.27466656 346.42108519 36.27466656 346.42108519 30.77734375 345.1796875 Z " fill="#EDEDED" transform="translate(147.22265625,106.8203125)"/>
<path d="M0 0 C3.92488093 3.70060202 7.02215543 7.4906925 10 12 C10 12.66 10 13.32 10 14 C10.66 14 11.32 14 12 14 C13.77643163 16.23753535 15.43237932 18.47222773 17.0625 20.8125 C17.52205078 21.45509766 17.98160156 22.09769531 18.45507812 22.75976562 C20.41918817 25.5429759 21.91267621 27.73802864 23 31 C23.66 31 24.32 31 25 31 C25.66 32.65 26.32 34.3 27 36 C27.66 36 28.32 36 29 36 C32 39.46153846 32 39.46153846 32 42 C32.66 42 33.32 42 34 42 C35.5078125 43.4609375 35.5078125 43.4609375 37.125 45.375 C37.66382813 46.00148437 38.20265625 46.62796875 38.7578125 47.2734375 C40 49 40 49 40 51 C40.639375 51.268125 41.27875 51.53625 41.9375 51.8125 C44 53 44 53 45 56 C46.33015884 56.67297822 47.6644592 57.33776667 49 58 C51.30977824 59.802367 53.49071598 61.74997847 55.6875 63.6875 C59.72758447 67.21253277 63.76860976 70.6581967 68.0625 73.875 C71.63378413 76.600103 74.36987027 79.35175554 77 83 C77 83.66 77 84.32 77 85 C69.06254783 83.59726061 61.23654485 81.95924088 53.5 79.6875 C52.85482422 79.51130127 52.20964844 79.33510254 51.54492188 79.15356445 C42.80824356 76.47360871 37.79369065 69.89817595 32.5625 62.8125 C31.99684326 62.05565918 31.43118652 61.29881836 30.84838867 60.51904297 C29.72841453 59.01816554 28.61152116 57.51498321 27.49804688 56.00927734 C26.26764894 54.35898807 25.00527625 52.73258473 23.734375 51.11328125 C13.86348582 38.33328855 0 16.58765604 0 0 Z " fill="#E3E3E3" transform="translate(205,10)"/>
<path d="M0 0 C0.495 1.485 0.495 1.485 1 3 C-12.32249136 6.50811685 -21.08745296 6.99126159 -34 2 C-34.91523438 1.65324219 -35.83046875 1.30648437 -36.7734375 0.94921875 C-41.30973944 -0.81489867 -45.69318334 -2.73325439 -50 -5 C-50 -5.66 -50 -6.32 -50 -7 C-34.51309664 -11.28201401 -13.85306648 -7.35243658 0 0 Z " fill="#E2E2E2" transform="translate(204,90)"/>
<path d="M0 0 C0.84820312 0.19335938 1.69640625 0.38671875 2.5703125 0.5859375 C11.02622125 2.4629634 19.40746905 3.8900226 28 5 C26.68 6.32 25.36 7.64 24 9 C25.32 9.33 26.64 9.66 28 10 C21.46114512 9.4638139 15.7034778 8.23048501 9.5 6.125 C8.28570312 5.74021484 8.28570312 5.74021484 7.046875 5.34765625 C5.89445313 4.96287109 5.89445313 4.96287109 4.71875 4.5703125 C4.02716797 4.34102051 3.33558594 4.11172852 2.62304688 3.87548828 C1 3 1 3 0 0 Z " fill="#B4B4B4" transform="translate(218,376)"/>
<path d="M0 0 C0.55429688 0.42152344 1.10859375 0.84304688 1.6796875 1.27734375 C2.40414062 1.82519531 3.12859375 2.37304688 3.875 2.9375 C4.59429687 3.48277344 5.31359375 4.02804687 6.0546875 4.58984375 C7.94357079 6.03964624 7.94357079 6.03964624 10 7 C10 7.66 10 8.32 10 9 C10.99 9.33 11.98 9.66 13 10 C11.31640625 10.67578125 11.31640625 10.67578125 9 11 C6.52734375 9.85546875 6.52734375 9.85546875 3.9375 8.1875 C3.08027344 7.64480469 2.22304687 7.10210937 1.33984375 6.54296875 C-0.44343604 5.3670163 -2.22265196 4.1848987 -4 3 C-2.68 3 -1.36 3 0 3 C0 2.01 0 1.02 0 0 Z " fill="#808080" transform="translate(164,476)"/>
<path d="M0 0 C0 0.33 0 0.66 0 1 C-1.98 1.66 -3.96 2.32 -6 3 C-5.67 3.66 -5.34 4.32 -5 5 C-10.4185766 5.22577402 -14.77487721 4.46670113 -20 3 C-20 2.34 -20 1.68 -20 1 C-6.3667426 -0.14806378 -6.3667426 -0.14806378 0 0 Z " fill="#ABABAB" transform="translate(342,244)"/>
<path d="M0 0 C4.81033104 2.54664585 8.32442148 4.99027798 12 9 C11.67 9.66 11.34 10.32 11 11 C10.01 10.67 9.02 10.34 8 10 C8 9.34 8 8.68 8 8 C7.42765625 7.86722656 6.8553125 7.73445313 6.265625 7.59765625 C4.02349125 7.00619683 1.91420381 6.26711146 -0.25 5.4375 C-0.95640625 5.16808594 -1.6628125 4.89867187 -2.390625 4.62109375 C-2.92171875 4.41613281 -3.4528125 4.21117187 -4 4 C-2.68 3.34 -1.36 2.68 0 2 C0 1.34 0 0.68 0 0 Z " fill="#939393" transform="translate(365,293)"/>
<path d="M0 0 C0.33 0 0.66 0 1 0 C1.07654536 4.51617599 1.10228696 8.59085217 0 13 C-0.66 12.01 -1.32 11.02 -2 10 C-2.66 12.31 -3.32 14.62 -4 17 C-4.66 17 -5.32 17 -6 17 C-4.49829538 11.01448228 -3.05773837 5.38744379 0 0 Z " fill="#929292" transform="translate(462,326)"/>
<path d="M0 0 C1.41791408 0.45445964 2.83428046 0.91374944 4.25 1.375 C5.43335938 1.75785156 5.43335938 1.75785156 6.640625 2.1484375 C8.86627958 2.95173667 10.90931672 3.89711662 13 5 C13 6.32 13 7.64 13 9 C9.02348017 9 7.85083826 7.55718178 4.8125 5.0625 C3.91144531 4.33160156 3.01039063 3.60070312 2.08203125 2.84765625 C1.39496094 2.23792969 0.70789063 1.62820313 0 1 C0 0.67 0 0.34 0 0 Z " fill="#969696" transform="translate(168,403)"/>
<path d="M0 0 C0.66 0 1.32 0 2 0 C1.67 0.99 1.34 1.98 1 3 C1.99 3.66 2.98 4.32 4 5 C0.37 5.66 -3.26 6.32 -7 7 C-6 4 -6 4 -3 2 C-2.01 2 -1.02 2 0 2 C0 1.34 0 0.68 0 0 Z " fill="#848484" transform="translate(330,490)"/>
<path d="M0 0 C1.1725131 0.95117134 2.33787015 1.91117009 3.5 2.875 C4.1496875 3.40867187 4.799375 3.94234375 5.46875 4.4921875 C6.22671875 5.23855469 6.22671875 5.23855469 7 6 C7 6.66 7 7.32 7 8 C5.68 8 4.36 8 3 8 C3 7.34 3 6.68 3 6 C2.030625 5.71125 1.06125 5.4225 0.0625 5.125 C-3 4 -3 4 -4 2 C-2.68 2 -1.36 2 0 2 C0 1.34 0 0.68 0 0 Z " fill="#949494" transform="translate(150,289)"/>
<path d="M0 0 C-1.82748903 2.46313739 -3.22976216 3.83428618 -6.26953125 4.48828125 C-8.51479346 4.72518293 -10.74455578 4.90361349 -13 5 C-9.15304156 0.94179239 -5.60773394 -0.32044194 0 0 Z " fill="#B4B4B4" transform="translate(310,220)"/>
<path d="M0 0 C0.66 0 1.32 0 2 0 C3.19799449 4.14659373 2.8896192 7.99369047 2.5625 12.25 C2.48418945 13.36761719 2.48418945 13.36761719 2.40429688 14.5078125 C2.2751783 16.33894861 2.13834886 18.16953813 2 20 C1.67 20 1.34 20 1 20 C0.67 13.4 0.34 6.8 0 0 Z " fill="#9C9C9C" transform="translate(123,323)"/>
<path d="M0 0 C1.65 1.65 3.3 3.3 5 5 C4.67 5.66 4.34 6.32 4 7 C1.0280615 5.87548273 -1.33440687 4.77706209 -4 3 C-2.68 3 -1.36 3 0 3 C0 2.01 0 1.02 0 0 Z " fill="#A7A7A7" transform="translate(164,476)"/>
<path d="M0 0 C0 0.66 0 1.32 0 2 C1.65 2 3.3 2 5 2 C1.09971775 4.60018816 -2.47434569 4.15085514 -7 4 C-7 3.34 -7 2.68 -7 2 C-2.25 0 -2.25 0 0 0 Z " fill="#818181" transform="translate(308,418)"/>
<path d="M0 0 C0.99 0 1.98 0 3 0 C3.66 1.65 4.32 3.3 5 5 C5.66 5 6.32 5 7 5 C6.67 5.66 6.34 6.32 6 7 C5.34 6.67 4.68 6.34 4 6 C4 7.65 4 9.3 4 11 C1.6870518 8.6870518 1.50419025 7.52095125 0.875 4.375 C0.70742188 3.55773437 0.53984375 2.74046875 0.3671875 1.8984375 C0.24601562 1.27195312 0.12484375 0.64546875 0 0 Z " fill="#959595" transform="translate(298,84)"/>
<path d="M0 0 C1.09570312 0.19464844 2.19140625 0.38929687 3.3203125 0.58984375 C4.16335937 0.74582031 5.00640625 0.90179688 5.875 1.0625 C5.875 1.3925 5.875 1.7225 5.875 2.0625 C0.925 2.3925 -4.025 2.7225 -9.125 3.0625 C-8.795 2.0725 -8.465 1.0825 -8.125 0.0625 C-5.2144446 -1.3927777 -3.16650948 -0.57266661 0 0 Z " fill="#8F8F8F" transform="translate(97.125,84.9375)"/>
<path d="M0 0 C0 3 0 3 -1.53125 4.82421875 C-2.1809375 5.43910156 -2.830625 6.05398438 -3.5 6.6875 C-4.1496875 7.31011719 -4.799375 7.93273437 -5.46875 8.57421875 C-5.9740625 9.04472656 -6.479375 9.51523437 -7 10 C-7.99 9.67 -8.98 9.34 -10 9 C-6.7 6.03 -3.4 3.06 0 0 Z " fill="#A9A9A9" transform="translate(411,411)"/>
<path d="M0 0 C2.475 0.495 2.475 0.495 5 1 C5.33 3.31 5.66 5.62 6 8 C4.62437146 6.71034824 3.29233607 5.37310707 2 4 C2 3.34 2 2.68 2 2 C1.34 2 0.68 2 0 2 C0 1.34 0 0.68 0 0 Z " fill="#939393" transform="translate(78,399)"/>
<path d="M0 0 C4.95 0.99 4.95 0.99 10 2 C9.67 2.99 9.34 3.98 9 5 C5.65626525 4.44271087 2.96687001 3.64826111 0 2 C0 1.34 0 0.68 0 0 Z " fill="#626262" transform="translate(218,376)"/>
<path d="M0 0 C0.66 0.33 1.32 0.66 2 1 C-0.31 3.64 -2.62 6.28 -5 9 C-5.99 8.34 -6.98 7.68 -8 7 C-6.625 5.5 -6.625 5.5 -5 4 C-4.34 4 -3.68 4 -3 4 C-3 3.34 -3 2.68 -3 2 C-2.01 1.34 -1.02 0.68 0 0 Z " fill="#B5B5B5" transform="translate(72,201)"/>
<path d="M0 0 C0.66 0.66 1.32 1.32 2 2 C2.33 1.34 2.66 0.68 3 0 C3.99 0.33 4.98 0.66 6 1 C0.25 6 0.25 6 -2 6 C-1.49396008 3.83125748 -1.00016187 2.00032373 0 0 Z " fill="#828282" transform="translate(384,209)"/>
<path d="M0 0 C1.98 0.66 3.96 1.32 6 2 C6 2.66 6 3.32 6 4 C2.37 3.67 -1.26 3.34 -5 3 C-5 2.67 -5 2.34 -5 2 C-3.35 1.67 -1.7 1.34 0 1 C0 0.67 0 0.34 0 0 Z " fill="#787878" transform="translate(338,261)"/>
<path d="M0 0 C0.33 0.99 0.66 1.98 1 3 C1.66 3.33 2.32 3.66 3 4 C-1.75 7 -1.75 7 -4 7 C-2.92598892 4.08482708 -2.22189824 2.22189824 0 0 Z " fill="#707070" transform="translate(106,127)"/>
<path d="M0 0 C0.33 1.32 0.66 2.64 1 4 C-1.4375 6.75 -1.4375 6.75 -4 9 C-4.66 8.67 -5.32 8.34 -6 8 C-4.02 5.36 -2.04 2.72 0 0 Z " fill="#8E8E8E" transform="translate(379,407)"/>
</svg>
